sfk_cyclingleg_x_-0.09_y_-0.04_states
version=1
nRows=9
nColumns=53
inDegrees=yes

# SIMM Motion File Header:
name sfk_cyclingleg_x_-0.09_y_-0.04_states
datacolumns 53
datarows 9
otherdata 1
range 0.00000000 0.00677463
endheader
time	/jointset/bb/crank_angle/value	/jointset/bb/crank_angle/speed	/jointset/spindle/pedal_angle_r/value	/jointset/spindle/pedal_angle_r/speed	/jointset/ground_pelvis/pelvis_tilt/value	/jointset/ground_pelvis/pelvis_tilt/speed	/jointset/ground_pelvis/pelvis_list/value	/jointset/ground_pelvis/pelvis_list/speed	/jointset/ground_pelvis/pelvis_rotation/value	/jointset/ground_pelvis/pelvis_rotation/speed	/jointset/ground_pelvis/pelvis_tx/value	/jointset/ground_pelvis/pelvis_tx/speed	/jointset/ground_pelvis/pelvis_ty/value	/jointset/ground_pelvis/pelvis_ty/speed	/jointset/ground_pelvis/pelvis_tz/value	/jointset/ground_pelvis/pelvis_tz/speed	/jointset/hip_r/hip_angle_r/value	/jointset/hip_r/hip_angle_r/speed	/jointset/hip_r/hip_adduction_r/value	/jointset/hip_r/hip_adduction_r/speed	/jointset/hip_r/hip_rotation_r/value	/jointset/hip_r/hip_rotation_r/speed	/jointset/knee_r/knee_angle_r/value	/jointset/knee_r/knee_angle_r/speed	/jointset/knee_r/tib_tx_r/value	/jointset/knee_r/tib_tx_r/speed	/jointset/knee_r/tib_ty_r/value	/jointset/knee_r/tib_ty_r/speed	/jointset/tib_pat_r/pat_angle_r/value	/jointset/tib_pat_r/pat_angle_r/speed	/jointset/tib_pat_r/pat_tx_r/value	/jointset/tib_pat_r/pat_tx_r/speed	/jointset/tib_pat_r/pat_ty_r/value	/jointset/tib_pat_r/pat_ty_r/speed	/jointset/ankle_r/ankle_angle_r/value	/jointset/ankle_r/ankle_angle_r/speed	/jointset/subtalar_r/subtalar_angle_r/value	/jointset/subtalar_r/subtalar_angle_r/speed	/jointset/mtp_r/mtp_angle_r/value	/jointset/mtp_r/mtp_angle_r/speed	/forceset/bifemlh_r/activation	/forceset/bifemlh_r/fiber_length	/forceset/bifemsh_r/activation	/forceset/bifemsh_r/fiber_length	/forceset/glut_max2_r/activation	/forceset/glut_max2_r/fiber_length	/forceset/vas_int_r/activation	/forceset/vas_int_r/fiber_length	/forceset/med_gas_r/activation	/forceset/med_gas_r/fiber_length	/forceset/tib_ant_r/activation	/forceset/tib_ant_r/fiber_length
      0.00000000	    -10.13487855	   -480.13863232	      3.82871036	    611.51288452	     -0.00000000	      0.00000000	     -0.00000000	     -0.00000000	      0.00000000	     -0.00000000	     -0.09000000	     -0.00000000	     -0.04000000	     -0.00000000	      0.00000000	      0.00000000	     81.65344275	     32.06471161	      4.08541546	      1.42411982	     -3.74016772	     14.51322204	   -114.76660044	    142.22299705	     -0.00189661	      0.04729216	     -0.49436353	      0.04628020	     17.65018552	     -0.12650027	      0.02205459	      0.06922840	     -0.02418531	      0.01115087	     27.49319838	    -44.20664317	     -0.00000000	     -0.00000000	     -0.00000000	     -0.00000000	     -0.10330788	      0.13936772	     -0.10330788	      0.14530093	     -0.10330788	      0.15562515	     -0.10330788	      0.16048503	     -0.10330788	      0.13025880	     -0.10330788	      0.11184517
      0.00100000	    -10.61501718	   -480.13863232	      4.44003594	    611.13760092	      0.00000000	      0.00000000	     -0.00000000	     -0.00000000	     -0.00000000	     -0.00000000	     -0.09000000	      0.00000000	     -0.04000000	     -0.00000000	     -0.00000000	     -0.00000000	     81.68454414	     30.13737356	      4.08684876	      1.44245897	     -3.72557581	     14.67022188	   -114.62343816	    144.09963328	     -0.00184909	      0.04773853	     -0.49431692	      0.04692939	     17.65005417	     -0.13626119	      0.02212423	      0.07004335	     -0.02417410	      0.01127525	     27.44882248	    -44.54317226	     -0.00000000	     -0.00000000	     -0.00000000	     -0.00000000	     -0.10343663	      0.13927186	     -0.10343663	      0.14533861	     -0.10343663	      0.15556044	     -0.10343663	      0.16042677	     -0.10343663	      0.13028948	     -0.10343663	      0.11182493
      0.00269390	    -11.42832366	   -480.13863232	      5.47469695	    610.49282821	      0.00000000	     -0.00000000	     -0.00000000	     -0.00000000	     -0.00000000	      0.00000000	     -0.09000000	      0.00000000	     -0.04000000	     -0.00000000	     -0.00000000	     -0.00000000	     81.73282275	     26.86378802	      4.08931814	      1.47305708	     -3.70050419	     14.93093377	   -114.37667341	    147.25181439	     -0.00176760	      0.04847024	     -0.49423650	      0.04802324	     17.64980886	     -0.15349191	      0.02224403	      0.07140232	     -0.02415483	      0.01148148	     27.37290616	    -45.08614751	     -0.00000000	     -0.00000000	     -0.00000000	      0.00000000	     -0.10365472	      0.13918761	     -0.10365472	      0.14537815	     -0.10365472	      0.15550920	     -0.10365472	      0.16030528	     -0.10365472	      0.13031782	     -0.10365472	      0.11182366
      0.00312094	    -11.63336383	   -480.13863232	      5.73536901	    610.32857144	      0.00000000	     -0.00000000	     -0.00000000	     -0.00000000	      0.00000000	      0.00000000	     -0.09000000	     -0.00000000	     -0.04000000	     -0.00000000	     -0.00000000	     -0.00000000	     81.74411822	     26.03688015	      4.08994883	      1.48067611	     -3.69411421	     14.99562470	   -114.31362183	    148.04117613	     -0.00174686	      0.04864985	     -0.49421594	      0.04829784	     17.64974237	     -0.15794291	      0.02227459	      0.07174065	     -0.02414991	      0.01153258	     27.35362424	    -45.21767628	     -0.00000000	     -0.00000000	     -0.00000000	      0.00000000	     -0.10370970	      0.13917429	     -0.10370970	      0.14538680	     -0.10370970	      0.15550219	     -0.10370970	      0.16028757	     -0.10370970	      0.13032544	     -0.10370970	      0.11182644
      0.00407710	    -12.09245170	   -480.13863232	      6.31876220	    609.95844597	     -0.00000000	     -0.00000000	     -0.00000000	     -0.00000000	      0.00000000	      0.00000000	     -0.09000000	     -0.00000000	     -0.04000000	      0.00000000	     -0.00000000	     -0.00000000	     81.76812762	     24.18327344	      4.09137269	      1.49759321	     -3.67970734	     15.13895856	   -114.17122916	    149.80074505	     -0.00170016	      0.04904488	     -0.49416946	      0.04891093	     17.64958653	     -0.16805860	      0.02234355	      0.07249190	     -0.02413883	      0.01164567	     27.31025113	    -45.50436973	     -0.00000000	     -0.00000000	      0.00000000	      0.00000000	     -0.10383281	      0.13915167	     -0.10383281	      0.14540556	     -0.10383281	      0.15549160	     -0.10383281	      0.16023105	     -0.10383281	      0.13034253	     -0.10383281	      0.11183792
      0.00607348	    -13.05099274	   -480.13863232	      7.53569435	    609.17582837	     -0.00000000	     -0.00000000	     -0.00000000	     -0.00000000	      0.00000000	      0.00000000	     -0.09000000	     -0.00000000	     -0.04000000	      0.00000000	     -0.00000000	     -0.00000000	     81.81253678	     20.30452393	      4.09439722	      1.53226573	     -3.64919063	     15.43151851	   -113.86852926	    153.43950466	     -0.00160145	      0.04983779	     -0.49407055	      0.05018318	     17.64922943	     -0.18983101	      0.02248981	      0.07403237	     -0.02411535	      0.01187584	     27.21883622	    -46.06833256	     -0.00000000	      0.00000000	      0.00000000	      0.00000000	     -0.10408984	      0.13912665	     -0.10408984	      0.14544427	     -0.10408984	      0.15548397	     -0.10408984	      0.15998922	     -0.10408984	      0.13037962	     -0.10408984	      0.11188857
      0.00627312	    -13.14684685	   -480.13863232	      7.65730135	    609.09688107	     -0.00000000	     -0.00000000	     -0.00000000	     -0.00000000	      0.00000000	      0.00000000	     -0.09000000	     -0.00000000	     -0.04000000	     -0.00000000	     -0.00000000	     -0.00000000	     81.81655157	     19.91608260	      4.09470346	      1.53568359	     -3.64610704	     15.46027696	   -113.83786077	    153.80075615	     -0.00159149	      0.04991471	     -0.49406051	      0.05030982	     17.64919131	     -0.19205555	      0.02250461	      0.07418433	     -0.02411298	      0.01189841	     27.20963383	    -46.12216354	     -0.00000000	      0.00000000	      0.00000000	      0.00000000	     -0.10411554	      0.13912534	     -0.10411554	      0.14544819	     -0.10411554	      0.15548390	     -0.10411554	      0.16000388	     -0.10411554	      0.13038329	     -0.10411554	      0.11189545
      0.00647276	    -13.24270095	   -480.13863232	      7.77889258	    609.01781528	     -0.00000000	     -0.00000000	     -0.00000000	     -0.00000000	      0.00000000	      0.00000000	     -0.09000000	     -0.00000000	     -0.04000000	      0.00000000	     -0.00000000	     -0.00000000	     81.82048880	     19.52754792	      4.09501038	      1.53909233	     -3.64301771	     15.48894518	   -113.80712022	    154.16152852	     -0.00158152	      0.04999119	     -0.49405046	      0.05043634	     17.64915275	     -0.19428853	      0.02251943	      0.07433590	     -0.02411060	      0.01192090	     27.20042074	    -46.17552968	     -0.00000000	      0.00000000	      0.00000000	      0.00000000	     -0.10414125	      0.13912421	     -0.10414125	      0.14545212	     -0.10414125	      0.15548391	     -0.10414125	      0.16002087	     -0.10414125	      0.13038702	     -0.10414125	      0.11190256
      0.00677463	    -13.38763874	   -480.13863232	      7.96271660	    608.89804085	     -0.00000000	     -0.00000000	     -0.00000000	     -0.00000000	      0.00000000	      0.00000000	     -0.09000000	     -0.00000000	     -0.04000000	     -0.00000000	     -0.00000000	     -0.00000000	     81.82629482	     18.93988569	      4.09547576	      1.54422913	     -3.63833559	     15.53212222	   -113.76050179	    154.70612935	     -0.00156641	      0.05010601	     -0.49403520	      0.05062745	     17.64909359	     -0.19768087	      0.02254191	      0.07456435	     -0.02410700	      0.01195475	     27.18646983	    -46.25534094	     -0.00000000	      0.00000000	      0.00000000	      0.00000000	     -0.10418011	      0.13912280	     -0.10418011	      0.14545809	     -0.10418011	      0.15548401	     -0.10418011	      0.16002191	     -0.10418011	      0.13039275	     -0.10418011	      0.11191367
